<mxfile host="app.diagrams.net" modified="2023-11-05T19:15:28.787Z" agent="Mozilla/5.0 (Windows NT 10.0; Win64; x64) AppleWebKit/537.36 (KHTML, like Gecko) Chrome/119.0.0.0 Safari/537.36" etag="6_scLYHNeNQT-HPfukyf" version="22.0.8" type="github">
  <diagram name="Page-1" id="_OjAN4VOlS1eb9nmoaP0">
    <mxGraphModel dx="1050" dy="587" grid="1" gridSize="10" guides="1" tooltips="1" connect="1" arrows="1" fold="1" page="1" pageScale="1" pageWidth="850" pageHeight="1100" math="0" shadow="0">
      <root>
        <mxCell id="0" />
        <mxCell id="1" parent="0" />
        <mxCell id="Pqonqbu2qx12MXSNsxlQ-1" value="User Interface" style="whiteSpace=wrap;html=1;aspect=fixed;" vertex="1" parent="1">
          <mxGeometry x="40" y="80" width="120" height="120" as="geometry" />
        </mxCell>
        <mxCell id="Pqonqbu2qx12MXSNsxlQ-3" value="Clinic Database&lt;br&gt;&amp;nbsp;Time Slot&amp;nbsp;&amp;nbsp;&lt;br&gt;Scheduler&amp;nbsp; &amp;nbsp;&amp;nbsp;" style="whiteSpace=wrap;html=1;aspect=fixed;" vertex="1" parent="1">
          <mxGeometry x="520" y="80" width="120" height="120" as="geometry" />
        </mxCell>
        <mxCell id="Pqonqbu2qx12MXSNsxlQ-4" value="Appointment&amp;nbsp; &amp;nbsp; Database&amp;nbsp; &amp;nbsp; &amp;nbsp; &amp;nbsp; &amp;nbsp; &amp;nbsp;&amp;nbsp;" style="whiteSpace=wrap;html=1;aspect=fixed;" vertex="1" parent="1">
          <mxGeometry x="720" y="80" width="120" height="120" as="geometry" />
        </mxCell>
        <mxCell id="Pqonqbu2qx12MXSNsxlQ-5" value="Doctor&amp;nbsp;&lt;br&gt;Database&lt;br&gt;Availability&amp;nbsp;&amp;nbsp;&lt;br&gt;Tracker&amp;nbsp; &amp;nbsp; &amp;nbsp; &amp;nbsp;" style="whiteSpace=wrap;html=1;aspect=fixed;" vertex="1" parent="1">
          <mxGeometry x="280" y="80" width="120" height="120" as="geometry" />
        </mxCell>
        <mxCell id="Pqonqbu2qx12MXSNsxlQ-6" value="Patient&amp;nbsp;&amp;nbsp;&lt;br&gt;Database&amp;nbsp;" style="whiteSpace=wrap;html=1;aspect=fixed;" vertex="1" parent="1">
          <mxGeometry x="50" y="280" width="100" height="100" as="geometry" />
        </mxCell>
        <mxCell id="Pqonqbu2qx12MXSNsxlQ-7" value="Clinic&amp;nbsp;&lt;br&gt;&amp;nbsp; &amp;nbsp; &amp;nbsp; &amp;nbsp;&lt;br&gt;Database&amp;nbsp; &amp;nbsp;&amp;nbsp; &amp;nbsp;&amp;nbsp;" style="whiteSpace=wrap;html=1;aspect=fixed;" vertex="1" parent="1">
          <mxGeometry x="530" y="280" width="100" height="100" as="geometry" />
        </mxCell>
        <mxCell id="Pqonqbu2qx12MXSNsxlQ-8" value="Appointment&amp;nbsp;&lt;br&gt;Database&amp;nbsp; &amp;nbsp;&amp;nbsp;" style="whiteSpace=wrap;html=1;aspect=fixed;" vertex="1" parent="1">
          <mxGeometry x="730" y="280" width="100" height="100" as="geometry" />
        </mxCell>
        <mxCell id="Pqonqbu2qx12MXSNsxlQ-9" value="Doctor&amp;nbsp; &amp;nbsp;&amp;nbsp;&lt;br&gt;Database&amp;nbsp; &amp;nbsp;&lt;br&gt;" style="whiteSpace=wrap;html=1;aspect=fixed;" vertex="1" parent="1">
          <mxGeometry x="290" y="280" width="100" height="100" as="geometry" />
        </mxCell>
        <mxCell id="Pqonqbu2qx12MXSNsxlQ-10" value="Patient Management&amp;nbsp;" style="text;html=1;align=center;verticalAlign=middle;resizable=0;points=[];autosize=1;strokeColor=none;fillColor=none;" vertex="1" parent="1">
          <mxGeometry x="30" y="38" width="140" height="30" as="geometry" />
        </mxCell>
      </root>
    </mxGraphModel>
  </diagram>
</mxfile>
